ISO-10303-21;
HEADER;
/* Generated by software containing ST-Developer
 * from STEP Tools, Inc. (www.steptools.com) 
 */
/* OPTION: using custom renumber hook */

FILE_DESCRIPTION(
/* description */ ('STEP AP242 Edition 2',
'CAx-IF Rec.Pracs.---Representation and Presentation of Product Manufa
cturing Information (PMI)---4.0---2014-10-13',
'CAx-IF Rec.Pracs.---3D Tessellated Geometry---0.4---2014-09-14','2;1',
'CAx-IF Rec.Pracs.---User Defined Attributes---1.5---2016-08-15'),
/* implementation_level */ '2;1');

FILE_NAME(
/* name */ 'Part Studio 1',
/* time_stamp */ '2026-05-19T04:20:46Z',
/* author */ (''),
/* organization */ (''),
/* preprocessor_version */ 'ST-DEVELOPER v20',
/* originating_system */ 'ONSHAPE BY PTC INC, 1.215',
/* authorisation */ '  ');

FILE_SCHEMA (('AP242_MANAGED_MODEL_BASED_3D_ENGINEERING_MIM_LF { 1 0 10303 442 3 1 4 }'));
ENDSEC;

DATA;
#10=SHAPE_REPRESENTATION_RELATIONSHIP('','',#509,#12);
#11=SHAPE_REPRESENTATION_RELATIONSHIP('','',#510,#13);
#12=ADVANCED_BREP_SHAPE_REPRESENTATION('',(#505),#809);
#13=ADVANCED_BREP_SHAPE_REPRESENTATION('',(#506),#810);
#14=CIRCLE('',#514,0.0125);
#15=CIRCLE('',#515,0.0125);
#16=CIRCLE('',#530,0.0125);
#17=CIRCLE('',#531,0.0125);
#18=CYLINDRICAL_SURFACE('',#513,0.0125);
#19=CYLINDRICAL_SURFACE('',#529,0.0125);
#20=ORIENTED_EDGE('',*,*,#152,.T.);
#21=ORIENTED_EDGE('',*,*,#153,.T.);
#22=ORIENTED_EDGE('',*,*,#154,.T.);
#23=ORIENTED_EDGE('',*,*,#155,.T.);
#24=ORIENTED_EDGE('',*,*,#156,.T.);
#25=ORIENTED_EDGE('',*,*,#157,.T.);
#26=ORIENTED_EDGE('',*,*,#158,.F.);
#27=ORIENTED_EDGE('',*,*,#159,.F.);
#28=ORIENTED_EDGE('',*,*,#160,.F.);
#29=ORIENTED_EDGE('',*,*,#161,.T.);
#30=ORIENTED_EDGE('',*,*,#162,.T.);
#31=ORIENTED_EDGE('',*,*,#158,.T.);
#32=ORIENTED_EDGE('',*,*,#163,.F.);
#33=ORIENTED_EDGE('',*,*,#164,.T.);
#34=ORIENTED_EDGE('',*,*,#165,.T.);
#35=ORIENTED_EDGE('',*,*,#161,.F.);
#36=ORIENTED_EDGE('',*,*,#166,.F.);
#37=ORIENTED_EDGE('',*,*,#167,.T.);
#38=ORIENTED_EDGE('',*,*,#168,.T.);
#39=ORIENTED_EDGE('',*,*,#159,.T.);
#40=ORIENTED_EDGE('',*,*,#169,.F.);
#41=ORIENTED_EDGE('',*,*,#170,.F.);
#42=ORIENTED_EDGE('',*,*,#171,.T.);
#43=ORIENTED_EDGE('',*,*,#154,.F.);
#44=ORIENTED_EDGE('',*,*,#172,.F.);
#45=ORIENTED_EDGE('',*,*,#173,.F.);
#46=ORIENTED_EDGE('',*,*,#174,.T.);
#47=ORIENTED_EDGE('',*,*,#155,.F.);
#48=ORIENTED_EDGE('',*,*,#171,.F.);
#49=ORIENTED_EDGE('',*,*,#175,.T.);
#50=ORIENTED_EDGE('',*,*,#176,.T.);
#51=ORIENTED_EDGE('',*,*,#156,.F.);
#52=ORIENTED_EDGE('',*,*,#176,.F.);
#53=ORIENTED_EDGE('',*,*,#177,.T.);
#54=ORIENTED_EDGE('',*,*,#178,.T.);
#55=ORIENTED_EDGE('',*,*,#157,.F.);
#56=ORIENTED_EDGE('',*,*,#178,.F.);
#57=ORIENTED_EDGE('',*,*,#179,.T.);
#58=ORIENTED_EDGE('',*,*,#163,.T.);
#59=ORIENTED_EDGE('',*,*,#162,.F.);
#60=ORIENTED_EDGE('',*,*,#165,.F.);
#61=ORIENTED_EDGE('',*,*,#180,.T.);
#62=ORIENTED_EDGE('',*,*,#169,.T.);
#63=ORIENTED_EDGE('',*,*,#175,.F.);
#64=ORIENTED_EDGE('',*,*,#170,.T.);
#65=ORIENTED_EDGE('',*,*,#180,.F.);
#66=ORIENTED_EDGE('',*,*,#164,.F.);
#67=ORIENTED_EDGE('',*,*,#179,.F.);
#68=ORIENTED_EDGE('',*,*,#177,.F.);
#69=ORIENTED_EDGE('',*,*,#152,.F.);
#70=ORIENTED_EDGE('',*,*,#168,.F.);
#71=ORIENTED_EDGE('',*,*,#181,.T.);
#72=ORIENTED_EDGE('',*,*,#182,.T.);
#73=ORIENTED_EDGE('',*,*,#153,.F.);
#74=ORIENTED_EDGE('',*,*,#182,.F.);
#75=ORIENTED_EDGE('',*,*,#183,.T.);
#76=ORIENTED_EDGE('',*,*,#172,.T.);
#77=ORIENTED_EDGE('',*,*,#160,.T.);
#78=ORIENTED_EDGE('',*,*,#174,.F.);
#79=ORIENTED_EDGE('',*,*,#184,.F.);
#80=ORIENTED_EDGE('',*,*,#166,.T.);
#81=ORIENTED_EDGE('',*,*,#181,.F.);
#82=ORIENTED_EDGE('',*,*,#167,.F.);
#83=ORIENTED_EDGE('',*,*,#184,.T.);
#84=ORIENTED_EDGE('',*,*,#173,.T.);
#85=ORIENTED_EDGE('',*,*,#183,.F.);
#86=ORIENTED_EDGE('',*,*,#185,.F.);
#87=ORIENTED_EDGE('',*,*,#186,.T.);
#88=ORIENTED_EDGE('',*,*,#187,.F.);
#89=ORIENTED_EDGE('',*,*,#188,.F.);
#90=ORIENTED_EDGE('',*,*,#189,.F.);
#91=ORIENTED_EDGE('',*,*,#190,.F.);
#92=ORIENTED_EDGE('',*,*,#191,.F.);
#93=ORIENTED_EDGE('',*,*,#192,.T.);
#94=ORIENTED_EDGE('',*,*,#193,.F.);
#95=ORIENTED_EDGE('',*,*,#194,.F.);
#96=ORIENTED_EDGE('',*,*,#195,.T.);
#97=ORIENTED_EDGE('',*,*,#186,.F.);
#98=ORIENTED_EDGE('',*,*,#196,.F.);
#99=ORIENTED_EDGE('',*,*,#197,.F.);
#100=ORIENTED_EDGE('',*,*,#198,.T.);
#101=ORIENTED_EDGE('',*,*,#194,.T.);
#102=ORIENTED_EDGE('',*,*,#199,.F.);
#103=ORIENTED_EDGE('',*,*,#200,.F.);
#104=ORIENTED_EDGE('',*,*,#201,.T.);
#105=ORIENTED_EDGE('',*,*,#192,.F.);
#106=ORIENTED_EDGE('',*,*,#202,.F.);
#107=ORIENTED_EDGE('',*,*,#203,.T.);
#108=ORIENTED_EDGE('',*,*,#204,.T.);
#109=ORIENTED_EDGE('',*,*,#190,.T.);
#110=ORIENTED_EDGE('',*,*,#205,.F.);
#111=ORIENTED_EDGE('',*,*,#206,.T.);
#112=ORIENTED_EDGE('',*,*,#207,.T.);
#113=ORIENTED_EDGE('',*,*,#189,.T.);
#114=ORIENTED_EDGE('',*,*,#208,.F.);
#115=ORIENTED_EDGE('',*,*,#209,.F.);
#116=ORIENTED_EDGE('',*,*,#205,.T.);
#117=ORIENTED_EDGE('',*,*,#188,.T.);
#118=ORIENTED_EDGE('',*,*,#210,.F.);
#119=ORIENTED_EDGE('',*,*,#211,.F.);
#120=ORIENTED_EDGE('',*,*,#208,.T.);
#121=ORIENTED_EDGE('',*,*,#187,.T.);
#122=ORIENTED_EDGE('',*,*,#201,.F.);
#123=ORIENTED_EDGE('',*,*,#212,.F.);
#124=ORIENTED_EDGE('',*,*,#210,.T.);
#125=ORIENTED_EDGE('',*,*,#193,.T.);
#126=ORIENTED_EDGE('',*,*,#207,.F.);
#127=ORIENTED_EDGE('',*,*,#213,.F.);
#128=ORIENTED_EDGE('',*,*,#199,.T.);
#129=ORIENTED_EDGE('',*,*,#209,.T.);
#130=ORIENTED_EDGE('',*,*,#211,.T.);
#131=ORIENTED_EDGE('',*,*,#212,.T.);
#132=ORIENTED_EDGE('',*,*,#200,.T.);
#133=ORIENTED_EDGE('',*,*,#213,.T.);
#134=ORIENTED_EDGE('',*,*,#206,.F.);
#135=ORIENTED_EDGE('',*,*,#185,.T.);
#136=ORIENTED_EDGE('',*,*,#214,.F.);
#137=ORIENTED_EDGE('',*,*,#215,.F.);
#138=ORIENTED_EDGE('',*,*,#196,.T.);
#139=ORIENTED_EDGE('',*,*,#191,.T.);
#140=ORIENTED_EDGE('',*,*,#204,.F.);
#141=ORIENTED_EDGE('',*,*,#216,.F.);
#142=ORIENTED_EDGE('',*,*,#214,.T.);
#143=ORIENTED_EDGE('',*,*,#195,.F.);
#144=ORIENTED_EDGE('',*,*,#198,.F.);
#145=ORIENTED_EDGE('',*,*,#217,.T.);
#146=ORIENTED_EDGE('',*,*,#202,.T.);
#147=ORIENTED_EDGE('',*,*,#215,.T.);
#148=ORIENTED_EDGE('',*,*,#216,.T.);
#149=ORIENTED_EDGE('',*,*,#203,.F.);
#150=ORIENTED_EDGE('',*,*,#217,.F.);
#151=ORIENTED_EDGE('',*,*,#197,.T.);
#152=EDGE_CURVE('',#218,#219,#262,.T.);
#153=EDGE_CURVE('',#219,#220,#263,.T.);
#154=EDGE_CURVE('',#220,#221,#264,.T.);
#155=EDGE_CURVE('',#221,#222,#265,.T.);
#156=EDGE_CURVE('',#222,#223,#266,.T.);
#157=EDGE_CURVE('',#223,#224,#267,.T.);
#158=EDGE_CURVE('',#218,#224,#268,.T.);
#159=EDGE_CURVE('',#225,#226,#14,.T.);
#160=EDGE_CURVE('',#227,#225,#269,.T.);
#161=EDGE_CURVE('',#227,#228,#15,.T.);
#162=EDGE_CURVE('',#228,#226,#270,.T.);
#163=EDGE_CURVE('',#229,#224,#271,.T.);
#164=EDGE_CURVE('',#229,#230,#272,.T.);
#165=EDGE_CURVE('',#230,#228,#273,.T.);
#166=EDGE_CURVE('',#231,#227,#274,.T.);
#167=EDGE_CURVE('',#231,#232,#275,.T.);
#168=EDGE_CURVE('',#232,#218,#276,.T.);
#169=EDGE_CURVE('',#233,#226,#277,.T.);
#170=EDGE_CURVE('',#234,#233,#278,.T.);
#171=EDGE_CURVE('',#234,#221,#279,.T.);
#172=EDGE_CURVE('',#235,#220,#280,.T.);
#173=EDGE_CURVE('',#236,#235,#281,.T.);
#174=EDGE_CURVE('',#236,#225,#282,.T.);
#175=EDGE_CURVE('',#234,#237,#283,.T.);
#176=EDGE_CURVE('',#237,#222,#284,.T.);
#177=EDGE_CURVE('',#237,#238,#285,.T.);
#178=EDGE_CURVE('',#238,#223,#286,.T.);
#179=EDGE_CURVE('',#238,#229,#287,.T.);
#180=EDGE_CURVE('',#230,#233,#288,.T.);
#181=EDGE_CURVE('',#232,#239,#289,.T.);
#182=EDGE_CURVE('',#239,#219,#290,.T.);
#183=EDGE_CURVE('',#239,#235,#291,.T.);
#184=EDGE_CURVE('',#231,#236,#292,.T.);
#185=EDGE_CURVE('',#240,#241,#293,.T.);
#186=EDGE_CURVE('',#240,#242,#294,.T.);
#187=EDGE_CURVE('',#243,#242,#295,.T.);
#188=EDGE_CURVE('',#244,#243,#296,.T.);
#189=EDGE_CURVE('',#245,#244,#297,.T.);
#190=EDGE_CURVE('',#246,#245,#298,.T.);
#191=EDGE_CURVE('',#241,#246,#299,.T.);
#192=EDGE_CURVE('',#247,#248,#16,.T.);
#193=EDGE_CURVE('',#249,#248,#300,.T.);
#194=EDGE_CURVE('',#250,#249,#17,.T.);
#195=EDGE_CURVE('',#250,#247,#301,.T.);
#196=EDGE_CURVE('',#251,#240,#302,.T.);
#197=EDGE_CURVE('',#252,#251,#303,.T.);
#198=EDGE_CURVE('',#252,#250,#304,.T.);
#199=EDGE_CURVE('',#253,#249,#305,.T.);
#200=EDGE_CURVE('',#254,#253,#306,.T.);
#201=EDGE_CURVE('',#254,#242,#307,.T.);
#202=EDGE_CURVE('',#255,#247,#308,.T.);
#203=EDGE_CURVE('',#255,#256,#309,.T.);
#204=EDGE_CURVE('',#256,#246,#310,.T.);
#205=EDGE_CURVE('',#257,#245,#311,.T.);
#206=EDGE_CURVE('',#257,#258,#312,.T.);
#207=EDGE_CURVE('',#258,#248,#313,.T.);
#208=EDGE_CURVE('',#259,#244,#314,.T.);
#209=EDGE_CURVE('',#257,#259,#315,.T.);
#210=EDGE_CURVE('',#260,#243,#316,.T.);
#211=EDGE_CURVE('',#259,#260,#317,.T.);
#212=EDGE_CURVE('',#260,#254,#318,.T.);
#213=EDGE_CURVE('',#253,#258,#319,.T.);
#214=EDGE_CURVE('',#261,#241,#320,.T.);
#215=EDGE_CURVE('',#251,#261,#321,.T.);
#216=EDGE_CURVE('',#261,#256,#322,.T.);
#217=EDGE_CURVE('',#252,#255,#323,.T.);
#218=VERTEX_POINT('',#672);
#219=VERTEX_POINT('',#673);
#220=VERTEX_POINT('',#675);
#221=VERTEX_POINT('',#677);
#222=VERTEX_POINT('',#679);
#223=VERTEX_POINT('',#681);
#224=VERTEX_POINT('',#683);
#225=VERTEX_POINT('',#687);
#226=VERTEX_POINT('',#688);
#227=VERTEX_POINT('',#690);
#228=VERTEX_POINT('',#692);
#229=VERTEX_POINT('',#696);
#230=VERTEX_POINT('',#698);
#231=VERTEX_POINT('',#701);
#232=VERTEX_POINT('',#703);
#233=VERTEX_POINT('',#707);
#234=VERTEX_POINT('',#709);
#235=VERTEX_POINT('',#712);
#236=VERTEX_POINT('',#714);
#237=VERTEX_POINT('',#718);
#238=VERTEX_POINT('',#722);
#239=VERTEX_POINT('',#731);
#240=VERTEX_POINT('',#741);
#241=VERTEX_POINT('',#742);
#242=VERTEX_POINT('',#744);
#243=VERTEX_POINT('',#746);
#244=VERTEX_POINT('',#748);
#245=VERTEX_POINT('',#750);
#246=VERTEX_POINT('',#752);
#247=VERTEX_POINT('',#756);
#248=VERTEX_POINT('',#757);
#249=VERTEX_POINT('',#759);
#250=VERTEX_POINT('',#761);
#251=VERTEX_POINT('',#765);
#252=VERTEX_POINT('',#767);
#253=VERTEX_POINT('',#770);
#254=VERTEX_POINT('',#772);
#255=VERTEX_POINT('',#776);
#256=VERTEX_POINT('',#778);
#257=VERTEX_POINT('',#781);
#258=VERTEX_POINT('',#783);
#259=VERTEX_POINT('',#787);
#260=VERTEX_POINT('',#791);
#261=VERTEX_POINT('',#800);
#262=LINE('',#671,#324);
#263=LINE('',#674,#325);
#264=LINE('',#676,#326);
#265=LINE('',#678,#327);
#266=LINE('',#680,#328);
#267=LINE('',#682,#329);
#268=LINE('',#684,#330);
#269=LINE('',#689,#331);
#270=LINE('',#693,#332);
#271=LINE('',#695,#333);
#272=LINE('',#697,#334);
#273=LINE('',#699,#335);
#274=LINE('',#700,#336);
#275=LINE('',#702,#337);
#276=LINE('',#704,#338);
#277=LINE('',#706,#339);
#278=LINE('',#708,#340);
#279=LINE('',#710,#341);
#280=LINE('',#711,#342);
#281=LINE('',#713,#343);
#282=LINE('',#715,#344);
#283=LINE('',#717,#345);
#284=LINE('',#719,#346);
#285=LINE('',#721,#347);
#286=LINE('',#723,#348);
#287=LINE('',#725,#349);
#288=LINE('',#727,#350);
#289=LINE('',#730,#351);
#290=LINE('',#732,#352);
#291=LINE('',#734,#353);
#292=LINE('',#736,#354);
#293=LINE('',#740,#355);
#294=LINE('',#743,#356);
#295=LINE('',#745,#357);
#296=LINE('',#747,#358);
#297=LINE('',#749,#359);
#298=LINE('',#751,#360);
#299=LINE('',#753,#361);
#300=LINE('',#758,#362);
#301=LINE('',#762,#363);
#302=LINE('',#764,#364);
#303=LINE('',#766,#365);
#304=LINE('',#768,#366);
#305=LINE('',#769,#367);
#306=LINE('',#771,#368);
#307=LINE('',#773,#369);
#308=LINE('',#775,#370);
#309=LINE('',#777,#371);
#310=LINE('',#779,#372);
#311=LINE('',#780,#373);
#312=LINE('',#782,#374);
#313=LINE('',#784,#375);
#314=LINE('',#786,#376);
#315=LINE('',#788,#377);
#316=LINE('',#790,#378);
#317=LINE('',#792,#379);
#318=LINE('',#794,#380);
#319=LINE('',#796,#381);
#320=LINE('',#799,#382);
#321=LINE('',#801,#383);
#322=LINE('',#803,#384);
#323=LINE('',#805,#385);
#324=VECTOR('',#547,1.);
#325=VECTOR('',#548,1.);
#326=VECTOR('',#549,1.);
#327=VECTOR('',#550,1.);
#328=VECTOR('',#551,1.);
#329=VECTOR('',#552,1.);
#330=VECTOR('',#553,1.);
#331=VECTOR('',#558,1.);
#332=VECTOR('',#561,1.);
#333=VECTOR('',#564,1.);
#334=VECTOR('',#565,1.);
#335=VECTOR('',#566,1.);
#336=VECTOR('',#567,1.);
#337=VECTOR('',#568,1.);
#338=VECTOR('',#569,1.);
#339=VECTOR('',#572,1.);
#340=VECTOR('',#573,1.);
#341=VECTOR('',#574,1.);
#342=VECTOR('',#575,1.);
#343=VECTOR('',#576,1.);
#344=VECTOR('',#577,1.);
#345=VECTOR('',#580,1.);
#346=VECTOR('',#581,1.);
#347=VECTOR('',#584,1.);
#348=VECTOR('',#585,1.);
#349=VECTOR('',#588,1.);
#350=VECTOR('',#591,1.);
#351=VECTOR('',#596,1.);
#352=VECTOR('',#597,1.);
#353=VECTOR('',#600,1.);
#354=VECTOR('',#603,1.);
#355=VECTOR('',#610,1.);
#356=VECTOR('',#611,1.);
#357=VECTOR('',#612,1.);
#358=VECTOR('',#613,1.);
#359=VECTOR('',#614,1.);
#360=VECTOR('',#615,1.);
#361=VECTOR('',#616,1.);
#362=VECTOR('',#621,1.);
#363=VECTOR('',#624,1.);
#364=VECTOR('',#627,1.);
#365=VECTOR('',#628,1.);
#366=VECTOR('',#629,1.);
#367=VECTOR('',#630,1.);
#368=VECTOR('',#631,1.);
#369=VECTOR('',#632,1.);
#370=VECTOR('',#635,1.);
#371=VECTOR('',#636,1.);
#372=VECTOR('',#637,1.);
#373=VECTOR('',#638,1.);
#374=VECTOR('',#639,1.);
#375=VECTOR('',#640,1.);
#376=VECTOR('',#643,1.);
#377=VECTOR('',#644,1.);
#378=VECTOR('',#647,1.);
#379=VECTOR('',#648,1.);
#380=VECTOR('',#651,1.);
#381=VECTOR('',#654,1.);
#382=VECTOR('',#659,1.);
#383=VECTOR('',#660,1.);
#384=VECTOR('',#663,1.);
#385=VECTOR('',#666,1.);
#386=EDGE_LOOP('',(#20,#21,#22,#23,#24,#25,#26));
#387=EDGE_LOOP('',(#27,#28,#29,#30));
#388=EDGE_LOOP('',(#31,#32,#33,#34,#35,#36,#37,#38));
#389=EDGE_LOOP('',(#39,#40,#41,#42,#43,#44,#45,#46));
#390=EDGE_LOOP('',(#47,#48,#49,#50));
#391=EDGE_LOOP('',(#51,#52,#53,#54));
#392=EDGE_LOOP('',(#55,#56,#57,#58));
#393=EDGE_LOOP('',(#59,#60,#61,#62));
#394=EDGE_LOOP('',(#63,#64,#65,#66,#67,#68));
#395=EDGE_LOOP('',(#69,#70,#71,#72));
#396=EDGE_LOOP('',(#73,#74,#75,#76));
#397=EDGE_LOOP('',(#77,#78,#79,#80));
#398=EDGE_LOOP('',(#81,#82,#83,#84,#85));
#399=EDGE_LOOP('',(#86,#87,#88,#89,#90,#91,#92));
#400=EDGE_LOOP('',(#93,#94,#95,#96));
#401=EDGE_LOOP('',(#97,#98,#99,#100,#101,#102,#103,#104));
#402=EDGE_LOOP('',(#105,#106,#107,#108,#109,#110,#111,#112));
#403=EDGE_LOOP('',(#113,#114,#115,#116));
#404=EDGE_LOOP('',(#117,#118,#119,#120));
#405=EDGE_LOOP('',(#121,#122,#123,#124));
#406=EDGE_LOOP('',(#125,#126,#127,#128));
#407=EDGE_LOOP('',(#129,#130,#131,#132,#133,#134));
#408=EDGE_LOOP('',(#135,#136,#137,#138));
#409=EDGE_LOOP('',(#139,#140,#141,#142));
#410=EDGE_LOOP('',(#143,#144,#145,#146));
#411=EDGE_LOOP('',(#147,#148,#149,#150,#151));
#412=FACE_BOUND('',#386,.T.);
#413=FACE_BOUND('',#387,.T.);
#414=FACE_BOUND('',#388,.T.);
#415=FACE_BOUND('',#389,.T.);
#416=FACE_BOUND('',#390,.T.);
#417=FACE_BOUND('',#391,.T.);
#418=FACE_BOUND('',#392,.T.);
#419=FACE_BOUND('',#393,.T.);
#420=FACE_BOUND('',#394,.T.);
#421=FACE_BOUND('',#395,.T.);
#422=FACE_BOUND('',#396,.T.);
#423=FACE_BOUND('',#397,.T.);
#424=FACE_BOUND('',#398,.T.);
#425=FACE_BOUND('',#399,.T.);
#426=FACE_BOUND('',#400,.T.);
#427=FACE_BOUND('',#401,.T.);
#428=FACE_BOUND('',#402,.T.);
#429=FACE_BOUND('',#403,.T.);
#430=FACE_BOUND('',#404,.T.);
#431=FACE_BOUND('',#405,.T.);
#432=FACE_BOUND('',#406,.T.);
#433=FACE_BOUND('',#407,.T.);
#434=FACE_BOUND('',#408,.T.);
#435=FACE_BOUND('',#409,.T.);
#436=FACE_BOUND('',#410,.T.);
#437=FACE_BOUND('',#411,.T.);
#438=PLANE('',#512);
#439=PLANE('',#516);
#440=PLANE('',#517);
#441=PLANE('',#518);
#442=PLANE('',#519);
#443=PLANE('',#520);
#444=PLANE('',#521);
#445=PLANE('',#522);
#446=PLANE('',#523);
#447=PLANE('',#524);
#448=PLANE('',#525);
#449=PLANE('',#526);
#450=PLANE('',#528);
#451=PLANE('',#532);
#452=PLANE('',#533);
#453=PLANE('',#534);
#454=PLANE('',#535);
#455=PLANE('',#536);
#456=PLANE('',#537);
#457=PLANE('',#538);
#458=PLANE('',#539);
#459=PLANE('',#540);
#460=PLANE('',#541);
#461=PLANE('',#542);
#462=ADVANCED_FACE('',(#412),#438,.T.);
#463=ADVANCED_FACE('',(#413),#18,.T.);
#464=ADVANCED_FACE('',(#414),#439,.T.);
#465=ADVANCED_FACE('',(#415),#440,.F.);
#466=ADVANCED_FACE('',(#416),#441,.F.);
#467=ADVANCED_FACE('',(#417),#442,.F.);
#468=ADVANCED_FACE('',(#418),#443,.F.);
#469=ADVANCED_FACE('',(#419),#444,.F.);
#470=ADVANCED_FACE('',(#420),#445,.T.);
#471=ADVANCED_FACE('',(#421),#446,.F.);
#472=ADVANCED_FACE('',(#422),#447,.F.);
#473=ADVANCED_FACE('',(#423),#448,.T.);
#474=ADVANCED_FACE('',(#424),#449,.T.);
#475=ADVANCED_FACE('',(#425),#450,.T.);
#476=ADVANCED_FACE('',(#426),#19,.T.);
#477=ADVANCED_FACE('',(#427),#451,.T.);
#478=ADVANCED_FACE('',(#428),#452,.F.);
#479=ADVANCED_FACE('',(#429),#453,.F.);
#480=ADVANCED_FACE('',(#430),#454,.F.);
#481=ADVANCED_FACE('',(#431),#455,.F.);
#482=ADVANCED_FACE('',(#432),#456,.F.);
#483=ADVANCED_FACE('',(#433),#457,.T.);
#484=ADVANCED_FACE('',(#434),#458,.F.);
#485=ADVANCED_FACE('',(#435),#459,.F.);
#486=ADVANCED_FACE('',(#436),#460,.T.);
#487=ADVANCED_FACE('',(#437),#461,.T.);
#488=CLOSED_SHELL('',(#462,#463,#464,#465,#466,#467,#468,#469,#470,#471,
#472,#473,#474));
#489=CLOSED_SHELL('',(#475,#476,#477,#478,#479,#480,#481,#482,#483,#484,
#485,#486,#487));
#490=STYLED_ITEM('',(#492),#505);
#491=STYLED_ITEM('',(#493),#506);
#492=PRESENTATION_STYLE_ASSIGNMENT((#494));
#493=PRESENTATION_STYLE_ASSIGNMENT((#495));
#494=SURFACE_STYLE_USAGE(.BOTH.,#496);
#495=SURFACE_STYLE_USAGE(.BOTH.,#497);
#496=SURFACE_SIDE_STYLE('',(#498));
#497=SURFACE_SIDE_STYLE('',(#499));
#498=SURFACE_STYLE_FILL_AREA(#500);
#499=SURFACE_STYLE_FILL_AREA(#501);
#500=FILL_AREA_STYLE('',(#502));
#501=FILL_AREA_STYLE('',(#503));
#502=FILL_AREA_STYLE_COLOUR('',#504);
#503=FILL_AREA_STYLE_COLOUR('',#504);
#504=COLOUR_RGB('',0.615686274509804,0.811764705882353,0.929411764705882);
#505=MANIFOLD_SOLID_BREP('rumble_mount_right',#488);
#506=MANIFOLD_SOLID_BREP('rumble_mount_left',#489);
#507=SHAPE_DEFINITION_REPRESENTATION(#819,#509);
#508=SHAPE_DEFINITION_REPRESENTATION(#820,#510);
#509=SHAPE_REPRESENTATION('rumble_mount_right',(#511),#809);
#510=SHAPE_REPRESENTATION('rumble_mount_left',(#527),#810);
#511=AXIS2_PLACEMENT_3D('',#669,#543,#544);
#512=AXIS2_PLACEMENT_3D('',#670,#545,#546);
#513=AXIS2_PLACEMENT_3D('',#685,#554,#555);
#514=AXIS2_PLACEMENT_3D('',#686,#556,#557);
#515=AXIS2_PLACEMENT_3D('',#691,#559,#560);
#516=AXIS2_PLACEMENT_3D('',#694,#562,#563);
#517=AXIS2_PLACEMENT_3D('',#705,#570,#571);
#518=AXIS2_PLACEMENT_3D('',#716,#578,#579);
#519=AXIS2_PLACEMENT_3D('',#720,#582,#583);
#520=AXIS2_PLACEMENT_3D('',#724,#586,#587);
#521=AXIS2_PLACEMENT_3D('',#726,#589,#590);
#522=AXIS2_PLACEMENT_3D('',#728,#592,#593);
#523=AXIS2_PLACEMENT_3D('',#729,#594,#595);
#524=AXIS2_PLACEMENT_3D('',#733,#598,#599);
#525=AXIS2_PLACEMENT_3D('',#735,#601,#602);
#526=AXIS2_PLACEMENT_3D('',#737,#604,#605);
#527=AXIS2_PLACEMENT_3D('',#738,#606,#607);
#528=AXIS2_PLACEMENT_3D('',#739,#608,#609);
#529=AXIS2_PLACEMENT_3D('',#754,#617,#618);
#530=AXIS2_PLACEMENT_3D('',#755,#619,#620);
#531=AXIS2_PLACEMENT_3D('',#760,#622,#623);
#532=AXIS2_PLACEMENT_3D('',#763,#625,#626);
#533=AXIS2_PLACEMENT_3D('',#774,#633,#634);
#534=AXIS2_PLACEMENT_3D('',#785,#641,#642);
#535=AXIS2_PLACEMENT_3D('',#789,#645,#646);
#536=AXIS2_PLACEMENT_3D('',#793,#649,#650);
#537=AXIS2_PLACEMENT_3D('',#795,#652,#653);
#538=AXIS2_PLACEMENT_3D('',#797,#655,#656);
#539=AXIS2_PLACEMENT_3D('',#798,#657,#658);
#540=AXIS2_PLACEMENT_3D('',#802,#661,#662);
#541=AXIS2_PLACEMENT_3D('',#804,#664,#665);
#542=AXIS2_PLACEMENT_3D('',#806,#667,#668);
#543=DIRECTION('',(0.,0.,1.));
#544=DIRECTION('',(1.,0.,0.));
#545=DIRECTION('',(2.44697972451139E-17,-1.,6.12323399573677E-17));
#546=DIRECTION('',(1.,2.44697972451139E-17,1.22464679914735E-16));
#547=DIRECTION('',(-0.248295698741202,-6.53905509181113E-17,-0.968684286022344));
#548=DIRECTION('',(0.968684286022344,8.49978143822123E-18,-0.248295698741202));
#549=DIRECTION('',(1.,2.44697972451139E-17,1.22464679914735E-16));
#550=DIRECTION('',(0.248295698741202,6.53905509181112E-17,0.968684286022344));
#551=DIRECTION('',(-0.968684286022344,-8.49978143822126E-18,0.248295698741202));
#552=DIRECTION('',(0.248295698741202,6.53905509181113E-17,0.968684286022344));
#553=DIRECTION('',(1.,2.44697972451139E-17,1.22464679914735E-16));
#554=DIRECTION('',(1.22464679914735E-16,-6.12323399573677E-17,-1.));
#555=DIRECTION('',(2.44697972451139E-17,-1.,6.12323399573677E-17));
#556=DIRECTION('',(1.22464679914735E-16,-6.12323399573677E-17,-1.));
#557=DIRECTION('',(-2.44697972451139E-17,1.,-6.12323399573677E-17));
#558=DIRECTION('',(1.22464679914735E-16,-6.12323399573677E-17,-1.));
#559=DIRECTION('',(1.22464679914735E-16,-6.12323399573677E-17,-1.));
#560=DIRECTION('',(-2.44697972451139E-17,1.,-6.12323399573677E-17));
#561=DIRECTION('',(1.22464679914735E-16,-6.12323399573677E-17,-1.));
#562=DIRECTION('',(-1.22464679914735E-16,6.12323399573677E-17,1.));
#563=DIRECTION('',(1.,2.44697972451139E-17,1.22464679914735E-16));
#564=DIRECTION('',(-2.44697972451139E-17,1.,-6.12323399573677E-17));
#565=DIRECTION('',(1.,2.44697972451139E-17,1.22464679914735E-16));
#566=DIRECTION('',(-2.44697972451139E-17,1.,-6.12323399573677E-17));
#567=DIRECTION('',(-2.44697972451139E-17,1.,-6.12323399573677E-17));
#568=DIRECTION('',(1.,2.44697972451139E-17,1.22464679914735E-16));
#569=DIRECTION('',(-2.44697972451139E-17,1.,-6.12323399573677E-17));
#570=DIRECTION('',(-1.22464679914735E-16,6.12323399573677E-17,1.));
#571=DIRECTION('',(1.,2.44697972451139E-17,1.22464679914735E-16));
#572=DIRECTION('',(-2.44697972451139E-17,1.,-6.12323399573677E-17));
#573=DIRECTION('',(1.,2.44697972451139E-17,1.22464679914735E-16));
#574=DIRECTION('',(-2.44697972451139E-17,1.,-6.12323399573677E-17));
#575=DIRECTION('',(-2.44697972451139E-17,1.,-6.12323399573677E-17));
#576=DIRECTION('',(1.,2.44697972451139E-17,1.22464679914735E-16));
#577=DIRECTION('',(-2.44697972451139E-17,1.,-6.12323399573677E-17));
#578=DIRECTION('',(0.968684286022344,8.49978143822126E-18,-0.248295698741202));
#579=DIRECTION('',(-0.248295698741202,-6.53905509181112E-17,-0.968684286022344));
#580=DIRECTION('',(0.248295698741202,6.53905509181112E-17,0.968684286022344));
#581=DIRECTION('',(-2.44697972451139E-17,1.,-6.12323399573677E-17));
#582=DIRECTION('',(0.248295698741202,6.53905509181113E-17,0.968684286022344));
#583=DIRECTION('',(0.968684286022344,8.49978143822126E-18,-0.248295698741202));
#584=DIRECTION('',(-0.968684286022344,-8.49978143822126E-18,0.248295698741202));
#585=DIRECTION('',(-2.44697972451139E-17,1.,-6.12323399573677E-17));
#586=DIRECTION('',(0.968684286022344,8.49978143822123E-18,-0.248295698741202));
#587=DIRECTION('',(-0.248295698741202,-6.53905509181113E-17,-0.968684286022344));
#588=DIRECTION('',(0.248295698741202,6.53905509181113E-17,0.968684286022344));
#589=DIRECTION('',(-1.,-2.44697972451139E-17,-1.22464679914735E-16));
#590=DIRECTION('',(2.44697972451139E-17,-1.,6.12323399573677E-17));
#591=DIRECTION('',(1.22464679914735E-16,-6.12323399573677E-17,-1.));
#592=DIRECTION('',(2.44697972451139E-17,-1.,6.12323399573677E-17));
#593=DIRECTION('',(1.,2.44697972451139E-17,1.22464679914735E-16));
#594=DIRECTION('',(-0.968684286022344,-8.49978143822126E-18,0.248295698741202));
#595=DIRECTION('',(0.248295698741202,6.53905509181112E-17,0.968684286022344));
#596=DIRECTION('',(-0.248295698741202,-6.53905509181113E-17,-0.968684286022344));
#597=DIRECTION('',(-2.44697972451139E-17,1.,-6.12323399573677E-17));
#598=DIRECTION('',(-0.248295698741202,-6.53905509181113E-17,-0.968684286022344));
#599=DIRECTION('',(-0.968684286022344,-8.49978143822123E-18,0.248295698741202));
#600=DIRECTION('',(0.968684286022344,8.49978143822123E-18,-0.248295698741202));
#601=DIRECTION('',(-1.,-2.44697972451139E-17,-1.22464679914735E-16));
#602=DIRECTION('',(2.44697972451139E-17,-1.,6.12323399573677E-17));
#603=DIRECTION('',(1.22464679914735E-16,-6.12323399573677E-17,-1.));
#604=DIRECTION('',(2.44697972451139E-17,-1.,6.12323399573677E-17));
#605=DIRECTION('',(1.,2.44697972451139E-17,1.22464679914735E-16));
#606=DIRECTION('',(0.,0.,1.));
#607=DIRECTION('',(1.,0.,0.));
#608=DIRECTION('',(-2.44697972451139E-17,-1.,6.12323399573677E-17));
#609=DIRECTION('',(-1.,2.44697972451139E-17,1.22464679914735E-16));
#610=DIRECTION('',(0.248295698741202,-6.53905509181113E-17,-0.968684286022344));
#611=DIRECTION('',(-1.,2.44697972451139E-17,1.22464679914735E-16));
#612=DIRECTION('',(-0.248295698741202,6.53905509181113E-17,0.968684286022344));
#613=DIRECTION('',(0.968684286022344,-8.49978143822126E-18,0.248295698741202));
#614=DIRECTION('',(-0.248295698741202,6.53905509181112E-17,0.968684286022344));
#615=DIRECTION('',(-1.,2.44697972451139E-17,1.22464679914735E-16));
#616=DIRECTION('',(-0.968684286022344,8.49978143822123E-18,-0.248295698741202));
#617=DIRECTION('',(-1.22464679914735E-16,-6.12323399573677E-17,-1.));
#618=DIRECTION('',(-2.44697972451139E-17,-1.,6.12323399573677E-17));
#619=DIRECTION('',(1.22464679914735E-16,6.12323399573677E-17,1.));
#620=DIRECTION('',(2.44697972451139E-17,1.,-6.12323399573677E-17));
#621=DIRECTION('',(-1.22464679914735E-16,-6.12323399573677E-17,-1.));
#622=DIRECTION('',(1.22464679914735E-16,6.12323399573677E-17,1.));
#623=DIRECTION('',(2.44697972451139E-17,1.,-6.12323399573677E-17));
#624=DIRECTION('',(-1.22464679914735E-16,-6.12323399573677E-17,-1.));
#625=DIRECTION('',(1.22464679914735E-16,6.12323399573677E-17,1.));
#626=DIRECTION('',(-1.,2.44697972451139E-17,1.22464679914735E-16));
#627=DIRECTION('',(2.44697972451139E-17,1.,-6.12323399573677E-17));
#628=DIRECTION('',(-1.,2.44697972451139E-17,1.22464679914735E-16));
#629=DIRECTION('',(2.44697972451139E-17,1.,-6.12323399573677E-17));
#630=DIRECTION('',(2.44697972451139E-17,1.,-6.12323399573677E-17));
#631=DIRECTION('',(-1.,2.44697972451139E-17,1.22464679914735E-16));
#632=DIRECTION('',(2.44697972451139E-17,1.,-6.12323399573677E-17));
#633=DIRECTION('',(1.22464679914735E-16,6.12323399573677E-17,1.));
#634=DIRECTION('',(-1.,2.44697972451139E-17,1.22464679914735E-16));
#635=DIRECTION('',(2.44697972451139E-17,1.,-6.12323399573677E-17));
#636=DIRECTION('',(-1.,2.44697972451139E-17,1.22464679914735E-16));
#637=DIRECTION('',(2.44697972451139E-17,1.,-6.12323399573677E-17));
#638=DIRECTION('',(2.44697972451139E-17,1.,-6.12323399573677E-17));
#639=DIRECTION('',(-1.,2.44697972451139E-17,1.22464679914735E-16));
#640=DIRECTION('',(2.44697972451139E-17,1.,-6.12323399573677E-17));
#641=DIRECTION('',(-0.968684286022344,8.49978143822126E-18,-0.248295698741202));
#642=DIRECTION('',(0.248295698741202,-6.53905509181112E-17,-0.968684286022344));
#643=DIRECTION('',(2.44697972451139E-17,1.,-6.12323399573677E-17));
#644=DIRECTION('',(-0.248295698741202,6.53905509181112E-17,0.968684286022344));
#645=DIRECTION('',(-0.248295698741202,6.53905509181113E-17,0.968684286022344));
#646=DIRECTION('',(-0.968684286022344,8.49978143822126E-18,-0.248295698741202));
#647=DIRECTION('',(2.44697972451139E-17,1.,-6.12323399573677E-17));
#648=DIRECTION('',(0.968684286022344,-8.49978143822126E-18,0.248295698741202));
#649=DIRECTION('',(-0.968684286022344,8.49978143822123E-18,-0.248295698741202));
#650=DIRECTION('',(0.248295698741202,-6.53905509181113E-17,-0.968684286022344));
#651=DIRECTION('',(-0.248295698741202,6.53905509181113E-17,0.968684286022344));
#652=DIRECTION('',(1.,-2.44697972451139E-17,-1.22464679914735E-16));
#653=DIRECTION('',(-2.44697972451139E-17,-1.,6.12323399573677E-17));
#654=DIRECTION('',(-1.22464679914735E-16,-6.12323399573677E-17,-1.));
#655=DIRECTION('',(-2.44697972451139E-17,-1.,6.12323399573677E-17));
#656=DIRECTION('',(-1.,2.44697972451139E-17,1.22464679914735E-16));
#657=DIRECTION('',(0.968684286022344,-8.49978143822126E-18,0.248295698741202));
#658=DIRECTION('',(-0.248295698741202,6.53905509181112E-17,0.968684286022344));
#659=DIRECTION('',(2.44697972451139E-17,1.,-6.12323399573677E-17));
#660=DIRECTION('',(0.248295698741202,-6.53905509181113E-17,-0.968684286022344));
#661=DIRECTION('',(0.248295698741202,-6.53905509181113E-17,-0.968684286022344));
#662=DIRECTION('',(0.968684286022344,-8.49978143822123E-18,0.248295698741202));
#663=DIRECTION('',(-0.968684286022344,8.49978143822123E-18,-0.248295698741202));
#664=DIRECTION('',(1.,-2.44697972451139E-17,-1.22464679914735E-16));
#665=DIRECTION('',(-2.44697972451139E-17,-1.,6.12323399573677E-17));
#666=DIRECTION('',(-1.22464679914735E-16,-6.12323399573677E-17,-1.));
#667=DIRECTION('',(-2.44697972451139E-17,-1.,6.12323399573677E-17));
#668=DIRECTION('',(-1.,2.44697972451139E-17,1.22464679914735E-16));
#669=CARTESIAN_POINT('',(0.,0.,0.));
#670=CARTESIAN_POINT('',(0.015,-0.003,0.01235));
#671=CARTESIAN_POINT('',(0.0052867384774305,-0.003,0.00523223778492623));
#672=CARTESIAN_POINT('',(0.00711118197069958,-0.003,0.01235));
#673=CARTESIAN_POINT('',(0.00446115527911601,-0.003,0.00201136253390194));
#674=CARTESIAN_POINT('',(0.0089049944412435,-0.003,0.000872306015926677));
#675=CARTESIAN_POINT('',(0.0123081509780454,-0.003,-9.59111038344483E-19));
#676=CARTESIAN_POINT('',(0.015,-0.003,1.83697019872103E-19));
#677=CARTESIAN_POINT('',(0.0228888180293004,-0.003,1.14979859473597E-18));
#678=CARTESIAN_POINT('',(0.0231915205622869,-0.003,0.00118094348202473));
#679=CARTESIAN_POINT('',(0.025538844720884,-0.003,0.0103386374660981));
#680=CARTESIAN_POINT('',(0.0241584696133022,-0.003,0.0106924588368043));
#681=CARTESIAN_POINT('',(0.0227780945057203,-0.003,0.0110462802075105));
#682=CARTESIAN_POINT('',(0.0231419085597817,-0.003,0.0124656401037552));
#683=CARTESIAN_POINT('',(0.0231122673848615,-0.003,0.01235));
#684=CARTESIAN_POINT('',(0.015,-0.003,0.01235));
#685=CARTESIAN_POINT('',(0.015,-7.61663643006215E-19,0.01235));
#686=CARTESIAN_POINT('',(0.015,-1.51788304147971E-18,-2.60101304439218E-34));
#687=CARTESIAN_POINT('',(0.0028653389004884,-0.003,-1.30237036755337E-18));
#688=CARTESIAN_POINT('',(0.0271346610995116,-0.003,1.66976440729758E-18));
#689=CARTESIAN_POINT('',(0.0028653389004884,-0.003,0.01235));
#690=CARTESIAN_POINT('',(0.0028653389004884,-0.003,0.01235));
#691=CARTESIAN_POINT('',(0.015,-7.61663643006215E-19,0.01235));
#692=CARTESIAN_POINT('',(0.0271346610995116,-0.003,0.01235));
#693=CARTESIAN_POINT('',(0.0271346610995116,-0.003,0.01235));
#694=CARTESIAN_POINT('',(0.015,7.56219398473491E-19,0.01235));
#695=CARTESIAN_POINT('',(0.0231122673848615,-0.0047,0.01235));
#696=CARTESIAN_POINT('',(0.0231122673848615,-0.0047,0.01235));
#697=CARTESIAN_POINT('',(0.015,-0.0047,0.01235));
#698=CARTESIAN_POINT('',(0.0271346610995116,-0.0047,0.01235));
#699=CARTESIAN_POINT('',(0.0271346610995116,-0.0047,0.01235));
#700=CARTESIAN_POINT('',(0.0028653389004884,-0.0047,0.01235));
#701=CARTESIAN_POINT('',(0.0028653389004884,-0.0047,0.01235));
#702=CARTESIAN_POINT('',(0.015,-0.0047,0.01235));
#703=CARTESIAN_POINT('',(0.00711118197069958,-0.0047,0.01235));
#704=CARTESIAN_POINT('',(0.00711118197069958,-0.0047,0.01235));
#705=CARTESIAN_POINT('',(0.015,0.,0.));
#706=CARTESIAN_POINT('',(0.0271346610995116,-0.0047,1.77385938522511E-18));
#707=CARTESIAN_POINT('',(0.0271346610995116,-0.0047,1.77385938522511E-18));
#708=CARTESIAN_POINT('',(0.015,-0.0047,2.87791997799628E-19));
#709=CARTESIAN_POINT('',(0.0228888180293004,-0.0047,1.2538935726635E-18));
#710=CARTESIAN_POINT('',(0.0228888180293004,-0.0047,1.2538935726635E-18));
#711=CARTESIAN_POINT('',(0.0123081509780454,-0.0047,-8.55016060416958E-19));
#712=CARTESIAN_POINT('',(0.0123081509780454,-0.0047,-8.55016060416958E-19));
#713=CARTESIAN_POINT('',(0.015,-0.0047,2.87791997799628E-19));
#714=CARTESIAN_POINT('',(0.0028653389004884,-0.0047,-1.19827538962585E-18));
#715=CARTESIAN_POINT('',(0.0028653389004884,-0.0047,-1.19827538962585E-18));
#716=CARTESIAN_POINT('',(0.0231915205622869,-0.0047,0.00118094348202473));
#717=CARTESIAN_POINT('',(0.0231915205622869,-0.0047,0.00118094348202473));
#718=CARTESIAN_POINT('',(0.025538844720884,-0.0047,0.010338637466098));
#719=CARTESIAN_POINT('',(0.025538844720884,-0.0047,0.010338637466098));
#720=CARTESIAN_POINT('',(0.0241584696133022,-0.0047,0.0106924588368043));
#721=CARTESIAN_POINT('',(0.0241584696133022,-0.0047,0.0106924588368043));
#722=CARTESIAN_POINT('',(0.0227780945057203,-0.0047,0.0110462802075105));
#723=CARTESIAN_POINT('',(0.0227780945057203,-0.0047,0.0110462802075105));
#724=CARTESIAN_POINT('',(0.0231419085597817,-0.0047,0.0124656401037552));
#725=CARTESIAN_POINT('',(0.0231419085597817,-0.0047,0.0124656401037552));
#726=CARTESIAN_POINT('',(0.0271346610995116,-0.0047,0.01235));
#727=CARTESIAN_POINT('',(0.0271346610995116,-0.0047,0.01235));
#728=CARTESIAN_POINT('',(0.015,-0.0047,0.00292993176899956));
#729=CARTESIAN_POINT('',(0.0052867384774305,-0.0047,0.00523223778492623));
#730=CARTESIAN_POINT('',(0.0052867384774305,-0.0047,0.00523223778492623));
#731=CARTESIAN_POINT('',(0.00446115527911601,-0.0047,0.00201136253390194));
#732=CARTESIAN_POINT('',(0.00446115527911601,-0.0047,0.00201136253390194));
#733=CARTESIAN_POINT('',(0.0089049944412435,-0.0047,0.000872306015926677));
#734=CARTESIAN_POINT('',(0.0089049944412435,-0.0047,0.000872306015926677));
#735=CARTESIAN_POINT('',(0.0028653389004884,-0.0047,0.01235));
#736=CARTESIAN_POINT('',(0.0028653389004884,-0.0047,0.01235));
#737=CARTESIAN_POINT('',(0.015,-0.0047,0.00292993176899956));
#738=CARTESIAN_POINT('',(0.,0.,0.));
#739=CARTESIAN_POINT('',(-0.015,-0.003,0.01235));
#740=CARTESIAN_POINT('',(-0.0052867384774305,-0.003,0.00523223778492623));
#741=CARTESIAN_POINT('',(-0.00711118197069958,-0.003,0.01235));
#742=CARTESIAN_POINT('',(-0.00446115527911601,-0.003,0.00201136253390194));
#743=CARTESIAN_POINT('',(-0.015,-0.003,0.01235));
#744=CARTESIAN_POINT('',(-0.0231122673848615,-0.003,0.01235));
#745=CARTESIAN_POINT('',(-0.0231419085597817,-0.003,0.0124656401037552));
#746=CARTESIAN_POINT('',(-0.0227780945057203,-0.003,0.0110462802075105));
#747=CARTESIAN_POINT('',(-0.0241584696133022,-0.003,0.0106924588368043));
#748=CARTESIAN_POINT('',(-0.025538844720884,-0.003,0.0103386374660981));
#749=CARTESIAN_POINT('',(-0.0231915205622869,-0.003,0.00118094348202473));
#750=CARTESIAN_POINT('',(-0.0228888180293004,-0.003,1.14979859473597E-18));
#751=CARTESIAN_POINT('',(-0.015,-0.003,1.83697019872103E-19));
#752=CARTESIAN_POINT('',(-0.0123081509780454,-0.003,-9.59111038344483E-19));
#753=CARTESIAN_POINT('',(-0.0089049944412435,-0.003,0.000872306015926677));
#754=CARTESIAN_POINT('',(-0.015,-7.61663643006215E-19,0.01235));
#755=CARTESIAN_POINT('',(-0.015,-1.51788304147971E-18,-2.60101304439218E-34));
#756=CARTESIAN_POINT('',(-0.0028653389004884,-0.003,-1.30237036755337E-18));
#757=CARTESIAN_POINT('',(-0.0271346610995116,-0.003,1.66976440729758E-18));
#758=CARTESIAN_POINT('',(-0.0271346610995116,-0.003,0.01235));
#759=CARTESIAN_POINT('',(-0.0271346610995116,-0.003,0.01235));
#760=CARTESIAN_POINT('',(-0.015,-7.61663643006215E-19,0.01235));
#761=CARTESIAN_POINT('',(-0.0028653389004884,-0.003,0.01235));
#762=CARTESIAN_POINT('',(-0.0028653389004884,-0.003,0.01235));
#763=CARTESIAN_POINT('',(-0.015,7.56219398473491E-19,0.01235));
#764=CARTESIAN_POINT('',(-0.00711118197069958,-0.0047,0.01235));
#765=CARTESIAN_POINT('',(-0.00711118197069958,-0.0047,0.01235));
#766=CARTESIAN_POINT('',(-0.015,-0.0047,0.01235));
#767=CARTESIAN_POINT('',(-0.0028653389004884,-0.0047,0.01235));
#768=CARTESIAN_POINT('',(-0.0028653389004884,-0.0047,0.01235));
#769=CARTESIAN_POINT('',(-0.0271346610995116,-0.0047,0.01235));
#770=CARTESIAN_POINT('',(-0.0271346610995116,-0.0047,0.01235));
#771=CARTESIAN_POINT('',(-0.015,-0.0047,0.01235));
#772=CARTESIAN_POINT('',(-0.0231122673848615,-0.0047,0.01235));
#773=CARTESIAN_POINT('',(-0.0231122673848615,-0.0047,0.01235));
#774=CARTESIAN_POINT('',(-0.015,0.,0.));
#775=CARTESIAN_POINT('',(-0.0028653389004884,-0.0047,-1.19827538962585E-18));
#776=CARTESIAN_POINT('',(-0.0028653389004884,-0.0047,-1.19827538962585E-18));
#777=CARTESIAN_POINT('',(-0.015,-0.0047,2.87791997799628E-19));
#778=CARTESIAN_POINT('',(-0.0123081509780454,-0.0047,-8.55016060416958E-19));
#779=CARTESIAN_POINT('',(-0.0123081509780454,-0.0047,-8.55016060416958E-19));
#780=CARTESIAN_POINT('',(-0.0228888180293004,-0.0047,1.2538935726635E-18));
#781=CARTESIAN_POINT('',(-0.0228888180293004,-0.0047,1.2538935726635E-18));
#782=CARTESIAN_POINT('',(-0.015,-0.0047,2.87791997799628E-19));
#783=CARTESIAN_POINT('',(-0.0271346610995116,-0.0047,1.77385938522511E-18));
#784=CARTESIAN_POINT('',(-0.0271346610995116,-0.0047,1.77385938522511E-18));
#785=CARTESIAN_POINT('',(-0.0231915205622869,-0.0047,0.00118094348202473));
#786=CARTESIAN_POINT('',(-0.025538844720884,-0.0047,0.010338637466098));
#787=CARTESIAN_POINT('',(-0.025538844720884,-0.0047,0.010338637466098));
#788=CARTESIAN_POINT('',(-0.0231915205622869,-0.0047,0.00118094348202473));
#789=CARTESIAN_POINT('',(-0.0241584696133022,-0.0047,0.0106924588368043));
#790=CARTESIAN_POINT('',(-0.0227780945057203,-0.0047,0.0110462802075105));
#791=CARTESIAN_POINT('',(-0.0227780945057203,-0.0047,0.0110462802075105));
#792=CARTESIAN_POINT('',(-0.0241584696133022,-0.0047,0.0106924588368043));
#793=CARTESIAN_POINT('',(-0.0231419085597817,-0.0047,0.0124656401037552));
#794=CARTESIAN_POINT('',(-0.0231419085597817,-0.0047,0.0124656401037552));
#795=CARTESIAN_POINT('',(-0.0271346610995116,-0.0047,0.01235));
#796=CARTESIAN_POINT('',(-0.0271346610995116,-0.0047,0.01235));
#797=CARTESIAN_POINT('',(-0.015,-0.0047,0.00292993176899956));
#798=CARTESIAN_POINT('',(-0.0052867384774305,-0.0047,0.00523223778492623));
#799=CARTESIAN_POINT('',(-0.00446115527911601,-0.0047,0.00201136253390194));
#800=CARTESIAN_POINT('',(-0.00446115527911601,-0.0047,0.00201136253390194));
#801=CARTESIAN_POINT('',(-0.0052867384774305,-0.0047,0.00523223778492623));
#802=CARTESIAN_POINT('',(-0.0089049944412435,-0.0047,0.000872306015926677));
#803=CARTESIAN_POINT('',(-0.0089049944412435,-0.0047,0.000872306015926677));
#804=CARTESIAN_POINT('',(-0.0028653389004884,-0.0047,0.01235));
#805=CARTESIAN_POINT('',(-0.0028653389004884,-0.0047,0.01235));
#806=CARTESIAN_POINT('',(-0.015,-0.0047,0.00292993176899956));
#807=MECHANICAL_DESIGN_GEOMETRIC_PRESENTATION_REPRESENTATION('',(#490),
#809);
#808=MECHANICAL_DESIGN_GEOMETRIC_PRESENTATION_REPRESENTATION('',(#491),
#810);
#809=(
GEOMETRIC_REPRESENTATION_CONTEXT(3)
GLOBAL_UNCERTAINTY_ASSIGNED_CONTEXT((#811))
GLOBAL_UNIT_ASSIGNED_CONTEXT((#817,#815,#813))
REPRESENTATION_CONTEXT('rumble_mount_right','TOP_LEVEL_ASSEMBLY_PART')
);
#810=(
GEOMETRIC_REPRESENTATION_CONTEXT(3)
GLOBAL_UNCERTAINTY_ASSIGNED_CONTEXT((#812))
GLOBAL_UNIT_ASSIGNED_CONTEXT((#818,#816,#814))
REPRESENTATION_CONTEXT('rumble_mount_left','TOP_LEVEL_ASSEMBLY_PART')
);
#811=UNCERTAINTY_MEASURE_WITH_UNIT(LENGTH_MEASURE(1.E-8),#817,
'DISTANCE_ACCURACY_VALUE','Maximum Tolerance applied to model');
#812=UNCERTAINTY_MEASURE_WITH_UNIT(LENGTH_MEASURE(1.E-8),#818,
'DISTANCE_ACCURACY_VALUE','Maximum Tolerance applied to model');
#813=(
NAMED_UNIT(*)
SI_UNIT($,.STERADIAN.)
SOLID_ANGLE_UNIT()
);
#814=(
NAMED_UNIT(*)
SI_UNIT($,.STERADIAN.)
SOLID_ANGLE_UNIT()
);
#815=(
NAMED_UNIT(*)
PLANE_ANGLE_UNIT()
SI_UNIT($,.RADIAN.)
);
#816=(
NAMED_UNIT(*)
PLANE_ANGLE_UNIT()
SI_UNIT($,.RADIAN.)
);
#817=(
LENGTH_UNIT()
NAMED_UNIT(*)
SI_UNIT($,.METRE.)
);
#818=(
LENGTH_UNIT()
NAMED_UNIT(*)
SI_UNIT($,.METRE.)
);
#819=PRODUCT_DEFINITION_SHAPE('','',#821);
#820=PRODUCT_DEFINITION_SHAPE('','',#822);
#821=PRODUCT_DEFINITION('','',#825,#823);
#822=PRODUCT_DEFINITION('','',#826,#824);
#823=PRODUCT_DEFINITION_CONTEXT('',#837,'design');
#824=PRODUCT_DEFINITION_CONTEXT('',#838,'design');
#825=PRODUCT_DEFINITION_FORMATION_WITH_SPECIFIED_SOURCE('','',#829,
 .NOT_KNOWN.);
#826=PRODUCT_DEFINITION_FORMATION_WITH_SPECIFIED_SOURCE('','',#830,
 .NOT_KNOWN.);
#827=PRODUCT_RELATED_PRODUCT_CATEGORY('','',(#829));
#828=PRODUCT_RELATED_PRODUCT_CATEGORY('','',(#830));
#829=PRODUCT('rumble_mount_right','rumble_mount_right',
'rumble_mount_right',(#833));
#830=PRODUCT('rumble_mount_left','rumble_mount_left',
'rumble_mount_left',(#834));
#831=PRODUCT_CATEGORY('','');
#832=PRODUCT_CATEGORY('','');
#833=PRODUCT_CONTEXT('',#837,'mechanical');
#834=PRODUCT_CONTEXT('',#838,'mechanical');
#835=APPLICATION_PROTOCOL_DEFINITION('international standard',
'ap242_managed_model_based_3d_engineering',2020,#837);
#836=APPLICATION_PROTOCOL_DEFINITION('international standard',
'ap242_managed_model_based_3d_engineering',2020,#838);
#837=APPLICATION_CONTEXT('managed model based 3d engineering');
#838=APPLICATION_CONTEXT('managed model based 3d engineering');
ENDSEC;
END-ISO-10303-21;
